<svg width="329" height="109" viewBox="0 0 329 109" fill="none" xmlns="http://www.w3.org/2000/svg">
<path d="M66.6777 69.7441C66.6777 81.8665 63.7383 91.3457 57.8594 98.1816C51.9805 104.972 43.8685 108.367 33.5234 108.367C27.0065 108.367 21.2643 106.795 16.2969 103.65C11.3294 100.506 7.52409 95.9941 4.88086 90.1152C2.23763 84.2363 0.916016 77.446 0.916016 69.7441C0.916016 57.6217 3.85547 48.1882 9.73438 41.4434C15.6133 34.653 23.6797 31.2578 33.9336 31.2578C44.1419 31.2578 52.14 34.6986 57.9277 41.5801C63.7611 48.416 66.6777 57.804 66.6777 69.7441ZM8.02539 69.7441C8.02539 79.9525 10.2585 87.9277 14.7246 93.6699C19.2363 99.3665 25.5938 102.215 33.7969 102.215C42 102.215 48.3346 99.3665 52.8008 93.6699C57.3125 87.9277 59.5684 79.9525 59.5684 69.7441C59.5684 59.4902 57.2897 51.5378 52.7324 45.8867C48.2207 40.2357 41.8633 37.4102 33.6602 37.4102C25.457 37.4102 19.1224 40.2357 14.6562 45.8867C10.2357 51.4922 8.02539 59.4447 8.02539 69.7441ZM118.631 31.2578C129.021 31.2578 136.837 34.5391 142.078 41.1016C147.365 47.6185 150.008 57.166 150.008 69.7441C150.008 82.0944 147.228 91.6191 141.668 98.3184C136.154 105.018 128.383 108.367 118.357 108.367C113.071 108.367 108.309 107.273 104.07 105.086C99.832 102.898 96.4824 99.7995 94.0215 95.7891H93.4062L91.4922 107H87.2539V0.632812H94.0215V27.3613C94.0215 31.3717 93.9303 35.0632 93.748 38.4355L93.543 44.2461H94.0215C96.847 39.7799 100.242 36.4987 104.207 34.4023C108.217 32.306 113.025 31.2578 118.631 31.2578ZM118.494 37.4102C109.744 37.4102 103.478 39.9167 99.6953 44.9297C95.9128 49.9427 94.0215 58.2142 94.0215 69.7441V70.9062C94.0215 82.1172 95.9811 90.1608 99.9004 95.0371C103.865 99.9134 110.018 102.352 118.357 102.352C126.469 102.352 132.576 99.526 136.678 93.875C140.779 88.1784 142.83 80.0892 142.83 69.6074C142.83 48.1426 134.718 37.4102 118.494 37.4102ZM186.922 107L158.211 32.6934H165.184L184.393 83.2109C186.945 89.6823 188.859 95.3333 190.135 100.164H190.545C192.413 93.9661 194.327 88.2695 196.287 83.0742L215.496 32.6934H222.469L193.758 107H186.922ZM241.678 107H234.91V32.6934H241.678V107ZM233.953 12.0488C233.953 7.67383 235.389 5.48633 238.26 5.48633C239.673 5.48633 240.766 6.05599 241.541 7.19531C242.361 8.33464 242.771 9.95247 242.771 12.0488C242.771 14.0996 242.361 15.7174 241.541 16.9023C240.766 18.0872 239.673 18.6797 238.26 18.6797C235.389 18.6797 233.953 16.4694 233.953 12.0488ZM328.084 69.7441C328.084 81.8665 325.145 91.3457 319.266 98.1816C313.387 104.972 305.275 108.367 294.93 108.367C288.413 108.367 282.671 106.795 277.703 103.65C272.736 100.506 268.93 95.9941 266.287 90.1152C263.644 84.2363 262.322 77.446 262.322 69.7441C262.322 57.6217 265.262 48.1882 271.141 41.4434C277.02 34.653 285.086 31.2578 295.34 31.2578C305.548 31.2578 313.546 34.6986 319.334 41.5801C325.167 48.416 328.084 57.804 328.084 69.7441ZM269.432 69.7441C269.432 79.9525 271.665 87.9277 276.131 93.6699C280.643 99.3665 287 102.215 295.203 102.215C303.406 102.215 309.741 99.3665 314.207 93.6699C318.719 87.9277 320.975 79.9525 320.975 69.7441C320.975 59.4902 318.696 51.5378 314.139 45.8867C309.627 40.2357 303.27 37.4102 295.066 37.4102C286.863 37.4102 280.529 40.2357 276.062 45.8867C271.642 51.4922 269.432 59.4447 269.432 69.7441Z" fill="#454545"/>
</svg>
